<?xml version="1.0" standalone="no"?><!DOCTYPE svg PUBLIC "-//W3C//DTD SVG 1.1//EN" "http://www.w3.org/Graphics/SVG/1.1/DTD/svg11.dtd"><svg t="1626444278378" class="icon" viewBox="0 0 1024 1024" version="1.1" xmlns="http://www.w3.org/2000/svg" p-id="9246" xmlns:xlink="http://www.w3.org/1999/xlink" width="200" height="200"><defs><style type="text/css"></style></defs><path d="M919.424 36.288l-10.496 39.552c25.728 6.72 47.296 23.232 60.608 46.4 13.504 23.168 17.152 50.176 10.112 76.16l39.488 10.496c9.728-36.416 4.608-74.496-14.272-107.2C985.984 69.184 955.712 45.952 919.424 36.288zM54.464 897.024c-13.44-23.104-17.088-50.112-10.048-76.032l-39.552-10.496c-9.664 36.288-4.544 74.432 14.272 107.008 18.88 32.64 49.28 55.744 85.568 65.408l10.496-39.488C89.344 936.64 67.84 920.128 54.464 897.024zM762.24 108.992 495.552 37.632C408.576 14.272 318.976 65.92 295.744 153.024l-149.376 557.504c-23.296 86.976 28.352 176.512 115.392 199.872l266.688 71.36c86.976 23.36 176.576-28.288 199.872-115.392l149.376-557.504C900.928 221.888 849.28 132.352 762.24 108.992zM781.184 376.704l-102.656 382.656c-11.776 43.52-56.448 69.312-99.968 57.6l-277.824-74.432c-43.584-11.712-69.44-56.448-57.664-100.032l102.528-382.528c11.712-43.52 56.448-69.312 99.968-57.664l277.952 74.432C766.912 288.448 792.832 333.184 781.184 376.704z" p-id="9247"></path></svg>