<?xml version="1.0" standalone="no"?><!DOCTYPE svg PUBLIC "-//W3C//DTD SVG 1.1//EN" "http://www.w3.org/Graphics/SVG/1.1/DTD/svg11.dtd"><svg t="1626444118123" class="icon" viewBox="0 0 1024 1024" version="1.1" xmlns="http://www.w3.org/2000/svg" p-id="3456" xmlns:xlink="http://www.w3.org/1999/xlink" width="200" height="200"><defs><style type="text/css"></style></defs><path d="M450.56 962.56c-147.0464 0-266.24-119.1936-266.24-266.24 0-57.58976 18.28864-110.8992 49.3568-154.46016L184.9344 155.40224a83.74272 83.74272 0 1 1 166.23616-20.41856l26.2144 213.36064a40.96 40.96 0 0 0 40.63232 35.96288H626.4832a40.96 40.96 0 0 0 40.6528-35.96288L696.32 193.65888C701.56288 153.16992 737.42336 122.88 778.24 122.88c34.97984 0 61.44 28.34432 61.44 63.32416 0 1.67936-26.60352 200.72448-79.81056 597.17632A204.8 204.8 0 0 1 556.68736 962.56H450.56z m20.48-409.6a163.84 163.84 0 0 0-163.84 163.84 40.96 40.96 0 1 0 81.92 0 81.92 81.92 0 0 1 81.92-81.92 40.96 40.96 0 1 0 0-81.92z" p-id="3457"></path></svg>