<?xml version="1.0" standalone="no"?><!DOCTYPE svg PUBLIC "-//W3C//DTD SVG 1.1//EN" "http://www.w3.org/Graphics/SVG/1.1/DTD/svg11.dtd"><svg t="1626445532095" class="icon" viewBox="0 0 1024 1024" version="1.1" xmlns="http://www.w3.org/2000/svg" p-id="45530" xmlns:xlink="http://www.w3.org/1999/xlink" width="200" height="200"><defs><style type="text/css"></style></defs><path d="M384 416L256 195.413333a22.186667 22.186667 0 0 1 5.546667-28.16A426.666667 426.666667 0 0 1 512 85.333333a433.92 433.92 0 0 1 62.72 4.693334 21.333333 21.333333 0 0 1 14.933333 31.573333l-170.666666 294.4a21.333333 21.333333 0 0 1-34.986667 0zM549.12 384h341.333333a21.333333 21.333333 0 0 0 20.053334-28.586667 426.666667 426.666667 0 0 0-224-232.96 20.906667 20.906667 0 0 0-26.88 8.96l-128 220.586667a21.333333 21.333333 0 0 0 17.493333 32zM213.333333 250.026667a20.906667 20.906667 0 0 0-34.56-2.986667A422.826667 422.826667 0 0 0 85.333333 512a395.946667 395.946667 0 0 0 2.986667 45.226667 20.906667 20.906667 0 0 0 21.333333 18.773333h256a21.333333 21.333333 0 0 0 18.346667-32zM474.88 640h-341.333333a21.333333 21.333333 0 0 0-20.053334 28.586667A426.666667 426.666667 0 0 0 341.333333 901.546667a20.906667 20.906667 0 0 0 26.88-8.96l128-220.586667a21.333333 21.333333 0 0 0-21.333333-32zM810.666667 773.973333a20.906667 20.906667 0 0 0 34.56 2.986667A422.826667 422.826667 0 0 0 938.666667 512a395.946667 395.946667 0 0 0-2.986667-45.226667 20.906667 20.906667 0 0 0-21.333333-18.773333h-256a21.333333 21.333333 0 0 0-18.346667 32z m-206.506667-165.973333l-170.666667 294.4a21.333333 21.333333 0 0 0 14.933334 31.573333A433.92 433.92 0 0 0 512 938.666667a426.666667 426.666667 0 0 0 251.306667-81.92 22.186667 22.186667 0 0 0 5.546666-28.16l-128-220.586667a21.333333 21.333333 0 0 0-36.266666 0z" p-id="45531"></path></svg>