<?xml version="1.0" standalone="no"?><!DOCTYPE svg PUBLIC "-//W3C//DTD SVG 1.1//EN" "http://www.w3.org/Graphics/SVG/1.1/DTD/svg11.dtd"><svg t="1626524394887" class="icon" viewBox="0 0 1024 1024" version="1.1" xmlns="http://www.w3.org/2000/svg" p-id="94157" xmlns:xlink="http://www.w3.org/1999/xlink" width="200" height="200"><defs><style type="text/css"></style></defs><path d="M512 0c282.7776 0 512 229.2224 512 512s-229.2224 512-512 512S0 794.7776 0 512 229.2224 0 512 0zM362.8032 583.6288l-5.12 0.2048a34.9184 34.9184 0 0 0-30.5152 38.8608 186.2144 186.2144 0 0 0 369.5104 1.2288 34.9184 34.9184 0 0 0-69.2224-8.8064A116.3776 116.3776 0 0 1 396.4928 614.4a34.9184 34.9184 0 0 0-38.8608-30.5152z m-65.1264-262.144a71.424 71.424 0 1 0 0 142.848 71.424 71.424 0 0 0 0-142.848z m428.6464 0a71.424 71.424 0 1 0 0 142.848 71.424 71.424 0 0 0 0-142.848z" fill="" p-id="94158"></path></svg>