<?xml version="1.0" standalone="no"?><!DOCTYPE svg PUBLIC "-//W3C//DTD SVG 1.1//EN" "http://www.w3.org/Graphics/SVG/1.1/DTD/svg11.dtd"><svg t="1626519517478" class="icon" viewBox="0 0 1024 1024" version="1.1" xmlns="http://www.w3.org/2000/svg" p-id="55952" xmlns:xlink="http://www.w3.org/1999/xlink" width="200" height="200"><defs><style type="text/css"></style></defs><path d="M980.844953 741.627471c0 17.048907-12.786681 38.360042-25.573361 46.884496l-413.436004 225.898023c-17.048907 12.786681-42.622268 12.786681-59.671176 0l-413.436004-225.898023c-12.786681-8.524454-25.573361-29.835588-25.573361-46.884496V281.306972c0-17.048907 12.786681-38.360042 25.573361-46.884495L482.164412 8.524454c17.048907-12.786681 42.622268-12.786681 59.671176 0l413.436004 225.898023c12.786681 8.524454 25.573361 29.835588 25.573361 46.884495v460.320499M512 110.817898l-311.14256 170.489074 311.14256 170.489074 311.14256-170.489074-311.14256-170.489074z" p-id="55953"></path></svg>