<?xml version="1.0" standalone="no"?><!DOCTYPE svg PUBLIC "-//W3C//DTD SVG 1.1//EN" "http://www.w3.org/Graphics/SVG/1.1/DTD/svg11.dtd"><svg t="1626444419596" class="icon" viewBox="0 0 1024 1024" version="1.1" xmlns="http://www.w3.org/2000/svg" p-id="17156" xmlns:xlink="http://www.w3.org/1999/xlink" width="200" height="200"><defs><style type="text/css"></style></defs><path d="M810.2 512c50.4-23.8 85.8-74.2 85.8-133.8 0-82-67.2-148.6-150-148.6-31.8 0-60.6 9.6-85.2 26.2l1.2-11.2c0-82-67.2-148.6-150-148.6s-150 66.6-150 148.6l1.2 11.2c-24-16.6-53.4-26.2-85.2-26.2-82.8 0-150 66.6-150 148.6 0 59.4 35.4 110 85.8 133.8C163.4 535.8 128 586.2 128 645.8c0 82 67.2 148.6 150 148.6 31.8 0 60.6-9.6 85.2-26.2l-1.2 11.2c0 82 67.2 148.6 150 148.6s150-66.6 150-148.6l-1.2-11.2c24 16.6 53.4 26.2 85.2 26.2 82.8 0 150-66.6 150-148.6 0-59.6-35.4-110-85.8-133.8zM512 660.6c-82.8 0-150-66.6-150-148.6s67.2-148.6 150-148.6 150 66.6 150 148.6-67.2 148.6-150 148.6z" p-id="17157"></path></svg>