<?xml version="1.0" standalone="no"?><!DOCTYPE svg PUBLIC "-//W3C//DTD SVG 1.1//EN" "http://www.w3.org/Graphics/SVG/1.1/DTD/svg11.dtd"><svg t="1626519324094" class="icon" viewBox="0 0 1024 1024" version="1.1" xmlns="http://www.w3.org/2000/svg" p-id="49636" xmlns:xlink="http://www.w3.org/1999/xlink" width="200" height="200"><defs><style type="text/css"></style></defs><path d="M905.844 236.309H104.305c-34.613 0-65.309-6.926-65.309-39.387l866.848-39.383V78.77C905.844 13.54 852.926 0 787.692 0L79.574 118.152C16.496 132.191 0 158.926 0 196.922v708.926C0 971.078 52.926 1024 118.152 1024h787.691C971.078 1024 1024 971.078 1024 905.848V354.461c0-65.231-52.922-118.152-118.156-118.152z m-42.348 507.32c-60.383 0-109.332-48.949-109.332-109.332s48.949-109.332 109.332-109.332 109.336 48.949 109.336 109.332-48.953 109.332-109.336 109.332z" p-id="49637"></path></svg>