<?xml version="1.0" standalone="no"?><!DOCTYPE svg PUBLIC "-//W3C//DTD SVG 1.1//EN" "http://www.w3.org/Graphics/SVG/1.1/DTD/svg11.dtd"><svg t="1626444545332" class="icon" viewBox="0 0 1024 1024" version="1.1" xmlns="http://www.w3.org/2000/svg" p-id="29339" xmlns:xlink="http://www.w3.org/1999/xlink" width="200" height="200"><defs><style type="text/css"></style></defs><path d="M256 576 128 576C89.6 576 64 550.4 64 512s25.6-64 64-64l128 0c38.4 0 64 25.6 64 64S294.4 576 256 576z" p-id="29340"></path><path d="M896 576l-128 0c-38.4 0-64-25.6-64-64s25.6-64 64-64l128 0c38.4 0 64 25.6 64 64S934.4 576 896 576z" p-id="29341"></path><path d="M441.6 768l-64 108.8c-19.2 32-57.6 38.4-89.6 25.6s-38.4-57.6-25.6-89.6l64-108.8c19.2-32 57.6-38.4 89.6-25.6S454.4 736 441.6 768z" p-id="29342"></path><path d="M761.6 211.2l-64 108.8C678.4 352 640 364.8 608 345.6S569.6 288 582.4 256l64-108.8c19.2-32 57.6-38.4 89.6-25.6S774.4 179.2 761.6 211.2z" p-id="29343"></path><path d="M697.6 704l64 108.8c19.2 32 6.4 70.4-25.6 89.6s-70.4 6.4-89.6-25.6l-64-108.8c-19.2-32-6.4-70.4 25.6-89.6S678.4 672 697.6 704z" p-id="29344"></path><path d="M377.6 147.2l64 108.8C454.4 288 448 326.4 416 345.6S345.6 352 326.4 320l-64-108.8C249.6 179.2 256 140.8 288 121.6S358.4 115.2 377.6 147.2z" p-id="29345"></path></svg>