<?xml version="1.0" standalone="no"?><!DOCTYPE svg PUBLIC "-//W3C//DTD SVG 1.1//EN" "http://www.w3.org/Graphics/SVG/1.1/DTD/svg11.dtd"><svg t="1626520357321" class="icon" viewBox="0 0 1024 1024" version="1.1" xmlns="http://www.w3.org/2000/svg" p-id="91074" xmlns:xlink="http://www.w3.org/1999/xlink" width="200" height="200"><defs><style type="text/css"></style></defs><path d="M1020.586667 447.146667c-6.826667-47.786667-58.026667-81.92-105.813334-64.853334-20.48 6.826667-47.786667-3.413333-58.026666-23.893333-10.24-23.893333-23.893333-44.373333-37.546667-64.853333-13.653333-20.48-10.24-47.786667 6.826667-61.44 17.066667-17.066667 27.306667-40.96 27.306666-64.853334s-13.653333-47.786667-30.72-61.44c-34.133333-27.306667-71.68-47.786667-109.226666-64.853333-13.653333-3.413333-23.893333-6.826667-34.133334-6.826667-37.546667 0-71.68 27.306667-78.506666 64.853334-3.413333 23.893333-23.893333 40.96-51.2 37.546666-23.893333-3.413333-51.2-3.413333-75.093334 0-23.893333 3.413333-47.786667-13.653333-51.2-37.546666-6.826667-37.546667-40.96-64.853333-78.506666-64.853334-10.24 0-20.48 3.413333-30.72 6.826667-40.96 17.066667-78.506667 37.546667-112.64 64.853333-17.066667 13.653333-30.72 37.546667-30.72 61.44s10.24 47.786667 27.306666 61.44c20.48 17.066667 23.893333 40.96 6.826667 61.44-13.653333 20.48-27.306667 44.373333-37.546667 64.853334-10.24 20.48-34.133333 34.133333-58.026666 23.893333-10.24-3.413333-17.066667-3.413333-27.306667-3.413333-40.96 0-75.093333 30.72-78.506667 71.68-3.413333 20.48-3.413333 44.373333-3.413333 64.853333s0 44.373333 3.413333 64.853333c6.826667 47.786667 58.026667 81.92 105.813334 64.853334 20.48-6.826667 47.786667 3.413333 58.026666 27.306666 10.24 23.893333 23.893333 44.373333 37.546667 64.853334 13.653333 20.48 10.24 47.786667-6.826667 61.44-17.066667 13.653333-27.306667 37.546667-27.306666 61.44s13.653333 47.786667 30.72 61.44c34.133333 27.306667 71.68 47.786667 109.226666 64.853333 10.24 3.413333 20.48 6.826667 30.72 6.826667 37.546667 0 71.68-27.306667 78.506667-64.853334 3.413333-23.893333 23.893333-40.96 51.2-37.546666 23.893333 3.413333 51.2 3.413333 75.093333 0 23.893333-3.413333 47.786667 13.653333 51.2 37.546666 6.826667 37.546667 40.96 64.853333 78.506667 64.853334 10.24 0 20.48-3.413333 30.72-6.826667 37.546667-17.066667 75.093333-37.546667 109.226667-64.853333 20.48-13.653333 30.72-37.546667 30.72-61.44s-10.24-47.786667-27.306667-61.44c-17.066667-13.653333-20.48-40.96-6.826667-61.44 13.653333-20.48 27.306667-44.373333 37.546667-64.853334 10.24-20.48 34.133333-34.133333 58.026667-23.893333 10.24 3.413333 17.066667 3.413333 27.306666 3.413333 40.96 0 75.093333-30.72 78.506667-71.68 10.24-20.48 10.24-44.373333 10.24-64.853333s0-44.373333-3.413333-64.853333zM682.666667 512c0 95.573333-75.093333 170.666667-170.666667 170.666667s-170.666667-75.093333-170.666667-170.666667 75.093333-170.666667 170.666667-170.666667 170.666667 75.093333 170.666667 170.666667z" fill="" p-id="91075"></path></svg>