<?xml version="1.0" standalone="no"?><!DOCTYPE svg PUBLIC "-//W3C//DTD SVG 1.1//EN" "http://www.w3.org/Graphics/SVG/1.1/DTD/svg11.dtd"><svg t="1626444845721" class="icon" viewBox="0 0 1024 1024" version="1.1" xmlns="http://www.w3.org/2000/svg" p-id="41921" xmlns:xlink="http://www.w3.org/1999/xlink" width="200" height="200"><defs><style type="text/css"></style></defs><path d="M1020.106338 281.323946A42.061359 42.061359 0 0 0 966.185894 256.027408a135.867575 135.867575 0 0 1-13.565428 3.753955 10.579328 10.579328 0 0 1-10.067425-2.815466l-176.521201-176.734494a10.621986 10.621986 0 0 1-2.687491-10.494011c1.279757-4.265858 2.602173-8.830326 4.265858-13.181501a42.231994 42.231994 0 0 0-79.55825-28.538589 376.717914 376.717914 0 0 0 8.275764 276.598228 292.083293 292.083293 0 0 1 12.285671 190.470557 10.707303 10.707303 0 0 1-17.873945 4.735102l-167.520241-167.520241a10.664645 10.664645 0 0 1 4.735103-17.831286 300.742984 300.742984 0 0 1 71.922364-10.451352 42.189335 42.189335 0 0 0 41.336164-43.042507 43.469092 43.469092 0 0 0-43.042507-41.336163A390.240684 390.240684 0 0 0 332.322064 332.812851a384.439117 384.439117 0 0 0-83.525498 419.376493 293.96027 293.96027 0 0 1 22.054485 86.042355l-99.09588-99.09588a41.805408 41.805408 0 0 0-29.861005-72.519585 447.915083 447.915083 0 0 0-113.642455 21.841193 42.189335 42.189335 0 0 0 14.205307 81.94713 42.658579 42.658579 0 0 0 14.077331-2.474197c4.265858-1.578367 8.958302-2.644832 13.480111-3.796614a10.664645 10.664645 0 0 1 10.110083 2.815467l176.56386 176.563859a10.707303 10.707303 0 0 1 2.68749 10.536669 223.957541 223.957541 0 0 1-4.265858 13.480111 42.146676 42.146676 0 1 0 79.344958 28.581249 376.461962 376.461962 0 0 0-8.10513-276.982156 291.57139 291.57139 0 0 1-12.285671-190.470556 10.749962 10.749962 0 0 1 7.550569-7.50791 10.579328 10.579328 0 0 1 10.323376 2.730149l167.520241 167.264289a10.664645 10.664645 0 0 1-4.735103 17.831286 297.842201 297.842201 0 0 1-72.519584 10.451352 42.231994 42.231994 0 0 0 0.767854 84.421329h0.725196a390.667269 390.667269 0 0 0 266.658779-113.173211 384.737727 384.737727 0 0 0 65.950164-88.90048 381.580992 381.580992 0 0 0 17.532676-330.476013 293.36305 293.36305 0 0 1-22.054486-85.999696l98.114733 98.114732a41.634773 41.634773 0 0 0-15.101137 32.71913 42.274652 42.274652 0 0 0 42.146676 41.037554h1.237099a449.834719 449.834719 0 0 0 116.372604-21.92651 42.189335 42.189335 0 0 0 25.552489-53.920444z m-421.296129 377.144499a10.579328 10.579328 0 0 1-13.864038-1.023806l-225.621226-225.621226a300.231081 300.231081 0 0 1 32.676471-39.288551 289.566436 289.566436 0 0 1 31.823301-27.301491 10.707303 10.707303 0 0 1 13.906696 1.023806L657.03917 585.35164a10.707303 10.707303 0 0 1 1.023806 13.906697 269.260953 269.260953 0 0 1-59.16745 59.210108z" p-id="41922"></path></svg>