<?xml version="1.0" standalone="no"?><!DOCTYPE svg PUBLIC "-//W3C//DTD SVG 1.1//EN" "http://www.w3.org/Graphics/SVG/1.1/DTD/svg11.dtd"><svg t="1626525686925" class="icon" viewBox="0 0 1024 1024" version="1.1" xmlns="http://www.w3.org/2000/svg" p-id="95451" xmlns:xlink="http://www.w3.org/1999/xlink" width="200" height="200"><defs><style type="text/css"></style></defs><path d="M426.666667 469.333333H128c-25.6 0-42.666667-17.066667-42.666667-42.666666V128c0-25.6 17.066667-42.666667 42.666667-42.666667h298.666667c25.6 0 42.666667 17.066667 42.666666 42.666667v298.666667c0 25.6-17.066667 42.666667-42.666666 42.666666zM170.666667 384h213.333333V170.666667H170.666667v213.333333zM896 469.333333h-298.666667c-25.6 0-42.666667-17.066667-42.666666-42.666666V128c0-25.6 17.066667-42.666667 42.666666-42.666667h298.666667c25.6 0 42.666667 17.066667 42.666667 42.666667v298.666667c0 25.6-17.066667 42.666667-42.666667 42.666666z m-256-85.333333h213.333333V170.666667h-213.333333v213.333333zM426.666667 938.666667H128c-25.6 0-42.666667-17.066667-42.666667-42.666667v-298.666667c0-25.6 17.066667-42.666667 42.666667-42.666666h298.666667c25.6 0 42.666667 17.066667 42.666666 42.666666v298.666667c0 25.6-17.066667 42.666667-42.666666 42.666667z m-256-85.333334h213.333333v-213.333333H170.666667v213.333333zM896 789.333333h-149.333333c-25.6 0-42.666667-17.066667-42.666667-42.666666V640H640v106.666667c0 25.6-17.066667 42.666667-42.666667 42.666666s-42.666667-17.066667-42.666666-42.666666V597.333333c0-25.6 17.066667-42.666667 42.666666-42.666666h149.333334c25.6 0 42.666667 17.066667 42.666666 42.666666v106.666667H853.333333V597.333333c0-25.6 17.066667-42.666667 42.666667-42.666666s42.666667 17.066667 42.666667 42.666666v149.333334c0 25.6-17.066667 42.666667-42.666667 42.666666zM746.666667 938.666667H597.333333c-25.6 0-42.666667-17.066667-42.666666-42.666667s17.066667-42.666667 42.666666-42.666667h149.333334c25.6 0 42.666667 17.066667 42.666666 42.666667s-17.066667 42.666667-42.666666 42.666667z" p-id="95452"></path><path d="M302.933333 789.333333H251.733333c-8.533333 0-17.066667-8.533333-17.066666-17.066666v-51.2c0-8.533333 8.533333-17.066667 17.066666-17.066667h51.2c8.533333 0 17.066667 8.533333 17.066667 17.066667v51.2c0 8.533333-8.533333 17.066667-17.066667 17.066666zM302.933333 320H251.733333c-8.533333 0-17.066667-8.533333-17.066666-17.066667V251.733333c0-8.533333 8.533333-17.066667 17.066666-17.066666h51.2c8.533333 0 17.066667 8.533333 17.066667 17.066666v51.2c0 8.533333-8.533333 17.066667-17.066667 17.066667zM772.266667 320h-51.2c-8.533333 0-17.066667-8.533333-17.066667-17.066667V251.733333c0-8.533333 8.533333-17.066667 17.066667-17.066666h51.2c8.533333 0 17.066667 8.533333 17.066666 17.066666v51.2c0 8.533333-8.533333 17.066667-17.066666 17.066667zM896 938.666667c-12.8 0-21.333333-4.266667-29.866667-12.8-8.533333-8.533333-12.8-17.066667-12.8-29.866667 0-12.8 4.266667-21.333333 12.8-29.866667 17.066667-17.066667 42.666667-17.066667 59.733334 0 8.533333 8.533333 12.8 21.333333 12.8 29.866667 0 12.8-4.266667 21.333333-12.8 29.866667-8.533333 8.533333-17.066667 12.8-29.866667 12.8z" p-id="95453"></path></svg>