<?xml version="1.0" standalone="no"?><!DOCTYPE svg PUBLIC "-//W3C//DTD SVG 1.1//EN" "http://www.w3.org/Graphics/SVG/1.1/DTD/svg11.dtd"><svg t="1626519398486" class="icon" viewBox="0 0 1024 1024" version="1.1" xmlns="http://www.w3.org/2000/svg" p-id="51787" xmlns:xlink="http://www.w3.org/1999/xlink" width="200" height="200"><defs><style type="text/css"></style></defs><path d="M396.8 627.2c-57.6 32-67.2-19.2-67.2-19.2l-70.4-166.4c-28.8-80 22.4-35.2 22.4-35.2s44.8 32 76.8 54.4c35.2 19.2 73.6 6.4 73.6 6.4l470.4-217.6C816 140.8 672 70.4 508.8 70.4c-265.6 0-480 188.8-480 419.2 0 134.4 70.4 252.8 182.4 329.6L192 934.4s-9.6 32 22.4 19.2c22.4-9.6 83.2-48 115.2-70.4 54.4 19.2 115.2 28.8 176 28.8 265.6 0 480-188.8 480-419.2 0-64-16-131.2-51.2-185.6-144 86.4-492.8 294.4-537.6 320z m0 0" p-id="51788"></path></svg>