<?xml version="1.0" standalone="no"?><!DOCTYPE svg PUBLIC "-//W3C//DTD SVG 1.1//EN" "http://www.w3.org/Graphics/SVG/1.1/DTD/svg11.dtd"><svg t="1626519877657" class="icon" viewBox="0 0 1024 1024" version="1.1" xmlns="http://www.w3.org/2000/svg" p-id="75376" xmlns:xlink="http://www.w3.org/1999/xlink" width="200" height="200"><defs><style type="text/css"></style></defs><path d="M512 949.138286c238.72 0 437.138286-198.418286 437.138286-437.138286 0-239.140571-198.857143-437.138286-437.577143-437.138286C272.438857 74.861714 74.88 272.859429 74.88 512c0 238.72 197.997714 437.138286 437.138286 437.138286z m0-461.129143c-59.574857-0.438857-106.715429-50.157714-106.715429-116.571429 0-62.153143 47.140571-114.011429 106.715429-114.011428 59.136 0 106.276571 51.858286 106.276571 114.011428 0 66.413714-47.140571 117.412571-106.276571 116.571429zM322.139429 726.710857c-16.713143 0-24.868571-11.154286-24.868572-26.148571 0-45.842286 69.010286-163.712 214.729143-163.712s214.290286 117.869714 214.290286 163.712c0 14.994286-8.155429 26.148571-24.429715 26.148571z" p-id="75377"></path></svg>