<?xml version="1.0" standalone="no"?><!DOCTYPE svg PUBLIC "-//W3C//DTD SVG 1.1//EN" "http://www.w3.org/Graphics/SVG/1.1/DTD/svg11.dtd"><svg t="1626423723982" class="icon" viewBox="0 0 1024 1024" version="1.1" xmlns="http://www.w3.org/2000/svg" p-id="2379" xmlns:xlink="http://www.w3.org/1999/xlink" width="200" height="200"><defs><style type="text/css"></style></defs><path d="M428.68736 30.17728c0 2.082133 8.331947 19.787093 18.746027 38.529707 53.111467 93.72672 66.645333 154.129067 66.645333 286.388907 0 70.813013-3.1232 141.62944-7.284053 159.3344-5.208747 23.95136-3.126613 31.24224 8.328533 31.24224 15.622827 0 20.831573-14.58176 42.697387-128.095573 8.331947-47.90272 10.41408-93.723307 4.16768-145.793707-8.328533-72.89856-11.451733-86.439253-39.574187-144.756053C497.421653 73.915733 428.68736 3.099307 428.68736 30.17728zM217.28256 154.105173C150.633813 190.552747 130.84672 234.2912 133.96992 341.5552c2.085547 76.02176 11.455147 115.595947 48.9472 204.117333 4.164267 10.410667-4.164267 21.865813-24.992427 34.36544-60.402347 36.447573-83.31264 69.768533-83.31264 124.965547 0 105.178453 94.767787 142.670507 212.445867 84.350293 29.160107-14.578347 60.398933-32.283307 68.73088-39.570773 35.40992-30.201173 37.492053-27.081387 33.324373 66.645333-5.205333 114.558293 9.373013 155.173547 65.611093 176.001707 33.324373 11.451733 41.65632 10.41408 82.26816-9.373013 46.861653-21.865813 65.611093-49.988267 70.813013-109.346133 3.126613-30.201173 5.21216-31.238827 70.81984-38.53312 91.641173-9.373013 144.75264-21.865813 182.244693-42.697387 68.73088-37.48864 88.517973-69.77536 88.517973-140.588373 0-42.7008-5.20192-56.23808-31.238827-83.309227-79.148373-83.31264-191.62112-83.31264-361.366187 0-39.574187 18.742613-73.939627 35.406507-78.103893 37.48864-4.16768 2.07872-6.249813-54.152533-6.249813-124.96896 1.041067-134.33856-8.331947-179.11808-51.029333-248.89344C375.575893 156.187307 279.76704 119.73632 217.28256 154.105173L217.28256 154.105173zM747.35616 333.223253c-59.357867 20.82816-105.181867 52.0704-136.424107 93.72672-28.115627 37.492053-30.204587 58.320213-3.126613 33.324373 13.540693-13.53728 24.992427-19.78368 98.932053-61.44 45.827413-26.036907 117.681493-24.99584 170.789547 2.082133 47.906133 23.95136 60.402347 19.787093 41.65632-14.58176C894.194347 340.514133 806.71744 313.439573 747.35616 333.223253z" p-id="2380"></path></svg>